<?xml version="1.0" encoding="UTF-8" standalone="no"?>
<!-- Created with Inkscape (http://www.inkscape.org/) -->

<svg
   xmlns:dc="http://purl.org/dc/elements/1.1/"
   xmlns:cc="http://creativecommons.org/ns#"
   xmlns:rdf="http://www.w3.org/1999/02/22-rdf-syntax-ns#"
   xmlns:svg="http://www.w3.org/2000/svg"
   xmlns="http://www.w3.org/2000/svg"
   xmlns:sodipodi="http://sodipodi.sourceforge.net/DTD/sodipodi-0.dtd"
   xmlns:inkscape="http://www.inkscape.org/namespaces/inkscape"
   width="36.376171mm"
   height="27.205698mm"
   viewBox="0 0 36.376171 27.205698"
   version="1.1"
   id="svg8"
   inkscape:version="0.92.4 (5da689c313, 2019-01-14)"
   sodipodi:docname="Logo of Detroit.svg">
  <defs
     id="defs2" />
  <sodipodi:namedview
     id="base"
     pagecolor="#ffffff"
     bordercolor="#666666"
     borderopacity="1.0"
     inkscape:pageopacity="0.0"
     inkscape:pageshadow="2"
     inkscape:zoom="4"
     inkscape:cx="54.462118"
     inkscape:cy="39.246443"
     inkscape:document-units="mm"
     inkscape:current-layer="layer1"
     showgrid="false"
     inkscape:window-width="2560"
     inkscape:window-height="1377"
     inkscape:window-x="-8"
     inkscape:window-y="-8"
     inkscape:window-maximized="1" />
  <metadata
     id="metadata5">
    <rdf:RDF>
      <cc:Work
         rdf:about="">
        <dc:format>image/svg+xml</dc:format>
        <dc:type
           rdf:resource="http://purl.org/dc/dcmitype/StillImage" />
        <dc:title></dc:title>
      </cc:Work>
    </rdf:RDF>
  </metadata>
  <g
     inkscape:label="Layer 1"
     inkscape:groupmode="layer"
     id="layer1"
     transform="translate(187.66963,-313.13458)">
    <g
       id="g956">
      <g
         transform="translate(-15.908073,12.203906)"
         style="fill:#333333;fill-opacity:1"
         id="g870">
        <path
           inkscape:connector-curvature="0"
           id="path845"
           style="font-style:normal;font-variant:normal;font-weight:normal;font-stretch:normal;font-size:1.84349072px;line-height:1.25;font-family:Arial;-inkscape-font-specification:Arial;text-align:start;letter-spacing:0px;word-spacing:0px;text-anchor:start;fill:#333333;fill-opacity:1;stroke:none;stroke-width:0.17282724"
           d="m -152.09024,319.98916 0.17462,0.0441 q -0.0549,0.21514 -0.19803,0.32856 -0.14222,0.11251 -0.34835,0.11251 -0.21333,0 -0.34746,-0.0864 -0.13322,-0.0873 -0.20343,-0.25204 -0.0693,-0.16473 -0.0693,-0.35376 0,-0.20613 0.0783,-0.35915 0.0792,-0.15393 0.22414,-0.23314 0.14582,-0.0801 0.32045,-0.0801 0.19803,0 0.33305,0.10081 0.13502,0.10082 0.18813,0.28355 l -0.17193,0.0405 q -0.0459,-0.14403 -0.13322,-0.20974 -0.0873,-0.0657 -0.21963,-0.0657 -0.15213,0 -0.25474,0.0729 -0.10172,0.0729 -0.14312,0.19623 -0.0414,0.12242 -0.0414,0.25294 0,0.16833 0.0486,0.29435 0.0495,0.12512 0.15302,0.18723 0.10352,0.0621 0.22414,0.0621 0.14672,0 0.24844,-0.0846 0.10171,-0.0846 0.13772,-0.25114 z" />
        <path
           inkscape:connector-curvature="0"
           id="path847"
           style="font-style:normal;font-variant:normal;font-weight:normal;font-stretch:normal;font-size:1.84349072px;line-height:1.25;font-family:Arial;-inkscape-font-specification:Arial;text-align:start;letter-spacing:0px;word-spacing:0px;text-anchor:start;fill:#333333;fill-opacity:1;stroke:none;stroke-width:0.17282724"
           d="m -151.2957,320.45183 v -1.31961 h 0.17463 v 1.31961 z" />
        <path
           inkscape:connector-curvature="0"
           id="path849"
           style="font-style:normal;font-variant:normal;font-weight:normal;font-stretch:normal;font-size:1.84349072px;line-height:1.25;font-family:Arial;-inkscape-font-specification:Arial;text-align:start;letter-spacing:0px;word-spacing:0px;text-anchor:start;fill:#333333;fill-opacity:1;stroke:none;stroke-width:0.17282724"
           d="m -149.91711,320.45183 v -1.16388 h -0.43477 v -0.15573 h 1.04597 v 0.15573 h -0.43657 v 1.16388 z" />
        <path
           inkscape:connector-curvature="0"
           id="path851"
           style="font-style:normal;font-variant:normal;font-weight:normal;font-stretch:normal;font-size:1.84349072px;line-height:1.25;font-family:Arial;-inkscape-font-specification:Arial;text-align:start;letter-spacing:0px;word-spacing:0px;text-anchor:start;fill:#333333;fill-opacity:1;stroke:none;stroke-width:0.17282724"
           d="m -148.12269,320.45183 v -0.55899 l -0.50858,-0.76062 h 0.21243 l 0.26014,0.39786 q 0.072,0.11162 0.13412,0.22324 0.0594,-0.10352 0.14402,-0.23314 l 0.25564,-0.38796 h 0.20344 l -0.52659,0.76062 v 0.55899 z" />
        <path
           inkscape:connector-curvature="0"
           id="path853"
           style="font-style:normal;font-variant:normal;font-weight:normal;font-stretch:normal;font-size:1.84349072px;line-height:1.25;font-family:Arial;-inkscape-font-specification:Arial;text-align:start;letter-spacing:0px;word-spacing:0px;text-anchor:start;fill:#333333;fill-opacity:1;stroke:none;stroke-width:0.17282724"
           d="m -145.92524,319.80913 q 0,-0.32855 0.17643,-0.51398 0.17642,-0.18633 0.45547,-0.18633 0.18273,0 0.32945,0.0873 0.14672,0.0873 0.22324,0.24394 0.0774,0.15572 0.0774,0.35376 0,0.20073 -0.081,0.35915 -0.081,0.15843 -0.22953,0.24034 -0.14852,0.081 -0.32045,0.081 -0.18633,0 -0.33305,-0.09 -0.14673,-0.09 -0.22234,-0.24574 -0.0756,-0.15572 -0.0756,-0.32945 z m 0.18003,0.003 q 0,0.23854 0.12782,0.37626 0.12872,0.13682 0.32225,0.13682 0.19713,0 0.32405,-0.13862 0.12782,-0.13862 0.12782,-0.39336 0,-0.16113 -0.0549,-0.28085 -0.054,-0.12062 -0.15932,-0.18633 -0.10442,-0.0666 -0.23494,-0.0666 -0.18543,0 -0.31955,0.12782 -0.13322,0.12692 -0.13322,0.42487 z" />
        <path
           inkscape:connector-curvature="0"
           id="path855"
           style="font-style:normal;font-variant:normal;font-weight:normal;font-stretch:normal;font-size:1.84349072px;line-height:1.25;font-family:Arial;-inkscape-font-specification:Arial;text-align:start;letter-spacing:0px;word-spacing:0px;text-anchor:start;fill:#333333;fill-opacity:1;stroke:none;stroke-width:0.17282724"
           d="m -144.015,320.45183 v -1.31961 h 0.89024 v 0.15573 h -0.71561 v 0.40866 h 0.6193 v 0.15573 h -0.6193 v 0.59949 z" />
      </g>
      <path
         d="m -160.99583,313.18911 c 0.0166,0.11171 0.14461,1.30911 0.14033,1.31339 -0.003,0.003 -0.0528,-0.18913 -0.11171,-0.42593 l -0.10719,-0.43057 -0.0637,0.0156 c -0.0351,0.009 -0.0657,0.0171 -0.068,0.0188 -0.003,0.002 0.0419,0.19793 0.0983,0.43593 0.0563,0.23806 0.10214,0.43894 0.10178,0.44647 -4.7e-4,0.008 -0.0565,-0.13129 -0.12461,-0.30856 -0.13599,-0.35398 -0.12713,-0.34319 -0.24486,-0.29843 -0.0342,0.013 -0.0365,0.019 -0.0215,0.0582 0.23143,0.60512 0.37586,1.00273 0.3655,1.00634 -0.0189,0.007 -0.16437,0.094 -0.20372,0.12267 -0.0322,0.0233 -0.0484,0.008 -0.486,-0.45195 -0.2489,-0.26192 -0.48329,-0.50787 -0.52082,-0.54667 l -0.0682,-0.0705 -0.0579,0.0578 -0.0578,0.0578 0.35464,0.36652 c 0.61549,0.63609 0.64115,0.64103 -0.26294,-0.0504 -0.14135,-0.10803 -0.35344,-0.27018 -0.47136,-0.36025 l -0.21431,-0.16371 -0.0543,0.0543 -0.0543,0.0543 0.62199,0.47756 c 0.66934,0.5139 0.68381,0.52516 0.66013,0.51504 -0.009,-0.004 -0.48395,-0.28716 -1.05617,-0.63 -1.17089,-0.70153 -1.05629,-0.64392 -1.11269,-0.55872 -0.0533,0.0804 -0.13123,0.0227 0.66742,0.49491 0.37616,0.2224 0.93627,0.5536 1.24464,0.73605 0.30837,0.18238 0.55884,0.33344 0.55661,0.33573 -0.002,0.002 -0.053,-0.0144 -0.11267,-0.0371 -0.57788,-0.2195 -1.82572,-0.68236 -1.83957,-0.68236 -0.0152,0 -0.0924,0.15714 -0.0811,0.16503 0.0141,0.01 1.99485,0.68393 2.00967,0.68393 0.0116,0 0.0145,0.0131 0.008,0.0354 -0.006,0.0195 -0.0145,0.0585 -0.0196,0.0868 -0.009,0.0474 -0.0132,0.0508 -0.0584,0.0434 -0.0269,-0.004 -0.54776,-0.0578 -1.15734,-0.11858 -0.60963,-0.0608 -1.15877,-0.11599 -1.22041,-0.12273 l -0.11207,-0.0122 -0.01,0.0937 c -0.005,0.0516 -0.008,0.0952 -0.006,0.0969 0.002,0.002 0.49919,0.0361 1.10449,0.0764 0.60524,0.0402 1.12877,0.0783 1.16336,0.0847 0.0371,0.007 -0.6914,0.0443 -1.7739,0.0912 -1.51005,0.0654 -1.83927,0.0836 -1.85096,0.10206 -0.008,0.0123 -0.0143,0.0631 -0.0144,0.1128 l -2.2e-4,0.0904 0.0511,-2.2e-4 c 0.0281,-1.8e-4 0.36941,-0.0208 0.75852,-0.0458 2.04907,-0.13177 3.10561,-0.19444 3.11524,-0.18479 0.0203,0.0203 -0.007,0.0281 -0.2874,0.0813 -0.15455,0.0294 -0.45075,0.0862 -0.65826,0.12628 -0.20751,0.0402 -0.40093,0.077 -0.42985,0.0818 -0.0525,0.009 -0.0525,0.009 -0.0419,0.0794 0.0208,0.1387 -0.0423,0.14154 0.67615,-0.0301 0.35453,-0.0847 0.65055,-0.1522 0.6579,-0.15009 0.0121,0.003 -0.71833,0.29445 -4.35241,1.73365 -1.42359,0.56378 -1.28935,0.50221 -1.25814,0.57698 0.0291,0.0696 0.03,0.0869 0.004,0.0842 -0.0108,-10e-4 -0.0798,0.003 -0.1534,0.009 l -0.1337,0.0114 -0.33006,-0.11051 c -0.53649,-0.17955 -0.99646,-0.29578 -1.26549,-0.31976 -0.0885,-0.008 -0.0336,0.0138 0.40875,0.16142 0.51631,0.17232 0.88945,0.31259 1.05997,0.39851 0.0864,0.0435 0.10122,0.0462 0.20558,0.0363 0.43412,-0.0406 0.94386,0.14954 1.23898,0.46238 l 0.0994,0.10538 0.14045,0.0194 c 0.52143,0.0721 0.92506,0.27059 1.2829,0.63097 l 0.18347,0.18473 0.18691,0.0254 c 0.10279,0.014 0.19492,0.0255 0.20473,0.0255 0.01,0 0.0608,-0.0832 0.1134,-0.18492 0.18793,-0.36362 0.41972,-0.70568 0.6635,-0.97935 0.30163,-0.3385 0.59349,-0.76304 0.78299,-1.13896 0.0992,-0.19678 0.2013,-0.45689 0.18558,-0.47268 -0.0224,-0.0224 -0.0619,0.0297 -0.15967,0.21004 -0.19751,0.36453 -0.47166,0.74913 -0.714,1.00152 -0.44201,0.46064 -0.9688,1.21813 -0.98597,1.41781 -1.1e-4,0.002 -0.0486,-0.003 -0.10762,-0.0104 l -0.10742,-0.0133 -0.13606,-0.13442 c -0.41447,-0.40942 -1.05159,-0.73297 -1.44335,-0.73297 -0.0367,0 -0.058,-0.0179 -0.11846,-0.0997 -0.20624,-0.27861 -0.60312,-0.48504 -0.96037,-0.49949 -0.0495,-0.002 -0.09,-0.008 -0.09,-0.0137 0,-0.006 0.54293,-0.2268 1.20662,-0.49172 0.66362,-0.26493 1.93429,-0.77214 2.82368,-1.12721 0.88939,-0.35501 1.6358,-0.64989 1.65864,-0.65519 0.0748,-0.0175 0.0113,0.0274 -0.43798,0.3091 -0.9253,0.58011 -1.10877,0.6958 -1.12052,0.70628 -0.0183,0.0163 0.0343,0.13045 0.0562,0.12201 0.0145,-0.006 0.70646,-0.42207 0.95434,-0.57433 0.13346,-0.0821 -0.45413,0.36212 -1.64683,1.24488 -0.1146,0.0848 -0.20835,0.15732 -0.20835,0.16118 0,0.015 0.0787,0.16142 0.0908,0.16889 0.0108,0.007 0.41261,-0.30259 1.12763,-0.86806 0.72219,-0.57114 0.95729,-0.74888 0.98814,-0.74702 0.0186,10e-4 0.11159,0.0204 0.20667,0.0428 0.68821,0.16226 1.32616,0.004 1.64375,-0.40755 0.0778,-0.1008 0.0933,-0.0995 0.0541,0.005 -0.0906,0.24119 -0.29204,0.40658 -0.57216,0.46985 -0.10327,0.0233 -0.10912,0.0271 -0.11822,0.0754 -0.0173,0.0924 -0.0467,0.11786 -0.0904,0.078 -0.0392,-0.0358 -0.0965,-0.0688 -0.1193,-0.0688 -0.008,0 -0.0205,0.026 -0.0285,0.0577 -0.0177,0.0702 -0.0465,0.0839 -0.0603,0.0289 -0.0148,-0.059 -0.0647,-0.0709 -0.29645,-0.0709 -0.11351,0 -0.30379,-0.008 -0.42273,-0.0181 -0.34742,-0.0291 -0.40104,0.008 -0.60825,0.42195 -0.41532,0.82944 -0.82582,1.52373 -1.07738,1.82228 -0.34446,0.40881 -0.71586,0.9688 -0.71707,1.08106 -2.2e-4,0.0223 -0.009,0.0272 -0.0357,0.0205 -0.0791,-0.0195 -0.50714,-0.089 -0.54769,-0.089 -0.0314,0 -0.0692,-0.0244 -0.13509,-0.0871 -0.19377,-0.18455 -0.46762,-0.3356 -0.76406,-0.42152 -0.13708,-0.0398 -0.186,-0.0483 -0.60874,-0.10611 -0.30644,-0.0419 -0.29306,-0.0341 -0.51685,-0.30126 -0.19124,-0.22824 -0.30999,-0.35332 -0.32307,-0.34025 -0.004,0.004 -0.0187,0.0637 -0.0326,0.13262 -0.0662,0.32922 -0.14267,0.48407 -0.34597,0.70038 -0.26059,0.27728 -0.33073,0.43044 -0.35465,0.77478 -0.066,0.95079 -0.14219,1.2256 -0.41936,1.51174 -0.29101,0.30049 -0.56203,0.33314 -1.48203,0.17859 -0.25451,-0.0428 -0.4064,-0.0348 -0.62097,0.0328 -0.6024,0.18968 -0.99247,0.19547 -1.12208,0.0165 -0.22595,-0.31187 -0.058,-0.62458 0.54408,-1.01291 l 0.1137,-0.0733 -0.01,-0.11465 c -0.028,-0.3317 0.12454,-0.59669 0.37182,-0.64591 0.0966,-0.0192 0.10339,-0.0235 0.12292,-0.0774 0.0129,-0.0356 0.0868,-0.11418 0.22486,-0.2389 0.25752,-0.2327 0.48895,-0.4969 0.45123,-0.51516 -0.23071,-0.11195 -0.37073,-0.26644 -0.45394,-0.50082 -0.0568,-0.15997 0.0921,-0.61307 0.33663,-1.02454 l 0.0735,-0.12364 -0.0314,-0.16612 c -0.0174,-0.0913 -0.039,-0.17075 -0.0482,-0.17642 -0.009,-0.006 -0.0234,-0.0759 -0.0318,-0.15617 -0.008,-0.0802 -0.0289,-0.17708 -0.0457,-0.21522 -0.0169,-0.0381 -0.0457,-0.12394 -0.0642,-0.19076 -0.12165,-0.44117 -0.44442,-0.85342 -0.84444,-1.07852 -0.15611,-0.0879 -0.11291,0.0123 0.0915,0.21221 0.25837,0.25264 0.1766,0.37832 -0.14201,0.21841 -0.33989,-0.17057 -0.40791,-0.18437 -0.8298,-0.1684 -0.16865,0.006 -0.0689,0.0595 0.19443,0.10369 0.30748,0.0515 0.4619,0.12792 0.4619,0.22836 0,0.0564 -0.0389,0.0527 -0.15039,-0.0145 -0.2186,-0.1316 -0.4778,-0.17034 -0.69622,-0.104 -0.15111,0.0459 -0.14828,0.056 0.0174,0.062 0.30343,0.011 0.58505,0.13268 0.66501,0.28722 0.0507,0.0981 -0.003,0.10521 -0.11195,0.0149 -0.22113,-0.18275 -0.46485,-0.24295 -0.69291,-0.17118 -0.19323,0.0608 -0.31355,0.0361 -0.39001,-0.0801 -0.0261,-0.0397 -0.0264,-0.039 -0.0187,0.0501 0.006,0.072 0.003,0.0904 -0.0149,0.0904 -0.0461,0 0.0325,0.20691 0.10502,0.27638 l 0.0462,0.0444 0.16093,-0.0271 c 0.27578,-0.0464 0.3473,-0.0293 0.39935,0.0953 0.0478,0.11454 -0.0465,0.15328 -0.16587,0.0683 -0.12858,-0.0916 -0.35121,-0.10828 -0.63513,-0.0477 -0.14875,0.0317 -0.17774,0.0336 -0.25438,0.0165 -0.10032,-0.0225 -0.12249,-0.0437 -0.0601,-0.0575 0.11912,-0.0264 0.20311,-0.0631 0.25824,-0.11291 0.0749,-0.0677 0.0777,-0.0901 0.01,-0.0761 -0.38917,0.0799 -0.63771,0.0167 -0.76406,-0.19438 l -0.0324,-0.0541 -0.0106,0.0663 -0.0106,0.0662 -0.0841,-0.0795 c -0.11786,-0.11141 -0.39917,-0.21793 -0.39917,-0.15117 0,0.003 0.0358,0.081 0.0798,0.17286 0.055,0.1152 0.0844,0.19998 0.0947,0.27324 0.0384,0.2744 0.25071,0.52981 0.50781,0.61085 0.0825,0.026 0.0826,0.0261 0.10899,0.12225 0.13286,0.48365 0.13889,0.4963 0.28343,0.59578 0.0545,0.0375 0.0772,0.12641 0.0581,0.22727 -0.0268,0.14117 -0.053,0.54451 -0.0413,0.63711 0.0133,0.10569 0.0339,0.12274 0.15365,0.12689 0.11496,0.004 0.28987,0.14684 0.28337,0.23137 -0.002,0.0299 -0.0109,0.13931 -0.0193,0.24307 -0.008,0.10375 -0.0152,0.24734 -0.0154,0.31903 l -2.3e-4,0.13045 -0.0983,-0.12942 c -0.10026,-0.13213 -0.20938,-0.22155 -0.30102,-0.24686 -0.0518,-0.0143 -0.55204,0.003 -0.64482,0.0219 l -0.0486,0.01 0.055,-0.0487 c 0.0798,-0.0707 0.32121,-0.23221 0.42617,-0.28524 0.19576,-0.0988 0.16582,-0.15659 -0.0446,-0.0861 -0.36332,0.12172 -0.75743,0.36839 -1.04273,0.65272 -0.30916,0.30795 -0.38978,0.4678 -0.39827,0.78937 l -0.004,0.13672 -0.18004,0.18558 c -0.39236,0.40447 -0.62807,0.77195 -0.71502,1.11479 -0.0396,0.15618 -0.0663,0.21902 -0.12749,0.30078 -0.0748,0.0999 0.0436,0.11027 -1.22379,-0.10731 -1.5767,-0.27072 -1.95087,-0.34471 -2.1538,-0.42599 -0.0433,-0.0173 -0.093,-0.037 -0.1105,-0.0438 -0.17323,-0.0669 -0.1992,-0.15413 -0.21354,-0.7158 -0.0171,-0.66737 -0.03,-0.75726 -0.12695,-0.88054 -0.0309,-0.0392 -0.0322,-0.0523 -0.0198,-0.19389 0.0169,-0.19299 0.0183,-0.43665 0.003,-0.49769 -0.0111,-0.0437 -0.007,-0.0494 0.0493,-0.0764 0.23384,-0.11135 0.33471,-0.31747 0.40912,-0.83552 0.0309,-0.21486 0.0624,-0.337 0.0983,-0.3802 0.025,-0.03 0.009,-0.0399 -0.0368,-0.0225 -0.0963,0.0366 -0.29391,0.34471 -0.37935,0.59144 -0.0548,0.15817 -0.15172,-0.0548 -0.15214,-0.3341 -1.2e-4,-0.095 -0.0129,-0.10135 -0.0691,-0.0347 -0.0799,0.095 -0.0974,0.40237 -0.0334,0.58735 0.0203,0.0589 0.0227,0.0857 0.01,0.11393 -0.0266,0.0584 -0.0439,0.0443 -0.0803,-0.0651 -0.0554,-0.16642 -0.15166,-0.21064 -0.25704,-0.11809 -0.0377,0.0331 -0.0701,0.0472 -0.10851,0.0472 -0.0321,0 -0.0724,0.0138 -0.0974,0.0336 -0.10864,0.0854 -0.25174,-0.0324 -0.31302,-0.25764 -0.0718,-0.26408 -0.18178,-0.45195 -0.26456,-0.45195 -0.0252,0 -0.0301,0.007 -0.0233,0.0354 0.0269,0.10936 0.0765,0.4484 0.0871,0.59499 0.0153,0.21168 0.049,0.27114 0.19504,0.34411 0.0522,0.0261 0.10436,0.0474 0.11593,0.0474 0.0484,0 0.0227,0.0929 -0.0418,0.15123 -0.0346,0.0313 -0.0628,0.0675 -0.0628,0.0806 0,0.0187 -0.0127,0.0217 -0.06,0.0141 -0.22005,-0.0352 -0.34645,0.23589 -0.14352,0.30771 0.0181,0.006 0.0155,0.0158 -0.0127,0.0466 -0.0591,0.0644 -0.032,0.15473 0.0395,0.13201 0.0221,-0.007 0.0354,0.004 0.0548,0.0443 0.0267,0.056 0.10556,0.1243 0.16395,0.14201 0.0438,0.0133 0.0482,0.0611 0.0607,0.65579 l 0.009,0.45021 -0.0658,0.006 c -0.0747,0.007 -0.0542,0.0366 -0.18034,-0.25987 -0.17883,-0.42044 -0.26023,-0.50455 -0.52824,-0.54582 -0.39092,-0.0603 -0.50799,-0.0205 -0.4575,0.1552 0.009,0.032 0.0133,0.0935 0.009,0.13678 l -0.008,0.0786 0.47365,0.62102 c 0.54716,0.71731 0.53082,0.69942 0.65091,0.71442 0.0653,0.008 0.12364,0.0315 0.21823,0.0871 0.1554,0.0913 0.35526,0.17582 0.52384,0.22131 0.0683,0.0184 0.31868,0.12057 0.5565,0.22691 1.98984,0.89024 2.63268,1.12914 3.2622,1.21259 0.41242,0.0546 0.63289,-0.0342 1.03761,-0.41815 0.0619,-0.0587 0.25312,-0.19914 0.43731,-0.32115 0.71382,-0.47274 1.27742,-0.93802 1.49373,-1.23319 0.0725,-0.0991 0.0732,-0.0995 0.0886,-0.0589 0.12996,0.34176 0.4205,0.90072 0.58102,1.11763 0.032,0.0433 0.1337,0.23546 0.22594,0.42719 l 0.16781,0.34856 -0.0529,0.10737 c -0.0661,0.134 -0.18998,0.46666 -0.27566,0.73996 -0.0733,0.23396 -0.0536,0.21589 -0.25264,0.23192 -0.86734,0.0699 -1.95719,0.25137 -2.35034,0.3914 -0.56571,0.20142 -0.73105,0.26878 -1.10334,0.44973 -1.18023,0.5736 -1.92309,1.27103 -1.92309,1.80559 0,0.18546 0.16913,0.78226 0.29704,1.04797 0.0333,0.0692 0.072,0.15762 0.086,0.19655 0.0482,0.13388 0.20685,0.29481 0.40141,0.40706 0.79835,0.46064 0.99622,0.51655 1.46378,0.41346 0.19576,-0.0431 0.8836,-0.11448 1.76866,-0.18329 1.56259,-0.12159 3.04613,-0.15895 4.44918,-0.11201 2.13505,0.0715 3.53478,0.15557 4.15834,0.24987 0.39646,0.0599 0.50714,0.0385 0.98054,-0.1907 0.58132,-0.28144 1.00351,-0.59596 1.11318,-0.8295 0.60204,-1.28146 -1.69877,-3.11639 -4.37333,-3.48779 -0.31464,-0.0437 -0.283,-0.0306 -0.283,-0.11731 0,-0.10562 -0.0491,-0.17516 -0.14539,-0.20595 -0.10297,-0.033 -0.12755,-0.0625 -0.12967,-0.15617 -0.002,-0.0833 -0.0269,-0.12412 -0.10393,-0.16967 -0.0507,-0.0299 -0.0927,-0.11261 -0.0927,-0.18263 0,-0.0985 -0.10538,-0.20154 -0.29343,-0.2871 -0.26601,-0.12093 -0.26457,-0.0962 -0.038,-0.662 0.32771,-0.81847 0.39273,-0.99049 0.60463,-1.60031 0.0751,-0.21588 0.11888,-0.49335 0.13063,-0.82739 l 0.01,-0.27716 0.20595,0.0692 c 0.55468,0.18636 1.1307,0.31608 1.5265,0.3438 0.28602,0.02 1.41726,0.25053 1.70033,0.34657 0.27729,0.094 0.38839,0.0644 0.50383,-0.13406 0.0932,-0.16021 0.22511,-0.31898 0.44455,-0.53498 0.29789,-0.29331 0.44273,-0.51366 0.59421,-0.90403 0.0268,-0.0692 0.17738,-0.45829 0.33458,-0.86469 0.1572,-0.4064 0.32308,-0.83438 0.36863,-0.95115 0.166,-0.4252 0.18063,-0.46406 0.1807,-0.48069 2.2e-4,-0.0637 0.0746,-0.0936 0.79985,-0.3223 0.21944,-0.0692 0.42038,-0.13683 0.44659,-0.15039 0.10394,-0.0538 0.44214,-0.41267 0.61687,-0.6547 l 0.0316,-0.0438 0.0941,0.0691 c 0.22619,0.166 0.79075,0.57397 0.82871,0.59885 l 0.0417,0.0273 0.0414,-0.0656 c 0.0228,-0.036 0.0391,-0.0675 0.0363,-0.0698 -0.003,-0.003 -0.21733,-0.14786 -0.47672,-0.32344 -0.25939,-0.17551 -0.47455,-0.32145 -0.47804,-0.32428 -0.003,-0.003 0,-0.0193 0.008,-0.0365 0.014,-0.031 0.53697,0.20486 2.14843,0.96892 0.10152,0.0481 0.19371,0.0841 0.20486,0.0798 0.0225,-0.009 0.0848,-0.11629 0.0736,-0.12701 -0.007,-0.007 -0.94596,-0.43984 -1.84662,-0.85203 -0.2421,-0.11081 -0.44322,-0.20377 -0.44696,-0.20667 -0.0199,-0.0154 0.0487,-0.11617 0.0738,-0.10845 0.0978,0.0301 1.6766,0.43267 1.68069,0.42857 0.003,-0.003 0.0148,-0.0375 0.0268,-0.0769 l 0.0216,-0.0718 -0.63073,-0.15841 c -0.34694,-0.0871 -0.71689,-0.18075 -0.82209,-0.20811 l -0.19136,-0.0496 0.0577,-0.0774 0.0577,-0.0774 0.46382,0.0117 c 0.25506,0.006 0.48854,0.0121 0.51878,0.0127 0.0534,8.4e-4 0.0552,-8.5e-4 0.0598,-0.0638 l 0.005,-0.0647 -0.13834,-0.01 c -0.0761,-0.005 -0.4143,-0.0183 -0.75153,-0.0289 -0.37887,-0.0119 -0.59211,-0.024 -0.55806,-0.0316 0.0302,-0.007 0.56396,-0.0798 1.18607,-0.16232 0.62211,-0.0825 1.13275,-0.15165 1.13474,-0.15364 0.032,-0.032 -0.0386,-0.13533 -0.0876,-0.1281 -0.17497,0.0257 -2.33455,0.28813 -2.33853,0.28415 -0.003,-0.003 0.22209,-0.0713 0.49938,-0.15256 0.58909,-0.17262 0.53727,-0.14991 0.51414,-0.22534 -0.0258,-0.084 0.002,-0.0877 -0.56987,0.076 -0.28518,0.0817 -0.51968,0.14714 -0.52113,0.14552 -10e-4,-0.002 0.35802,-0.19396 0.79877,-0.42744 0.44069,-0.23348 0.80823,-0.42869 0.81672,-0.43381 0.0152,-0.009 -0.0275,-0.14003 -0.0457,-0.14003 -0.0101,0 -0.50497,0.24884 -0.93108,0.4681 -0.15991,0.0824 -0.28373,0.1425 -0.27511,0.13376 0.009,-0.009 0.18732,-0.13412 0.397,-0.27843 0.20968,-0.14436 0.38122,-0.26517 0.38122,-0.26848 0,-0.003 -0.0147,-0.0309 -0.0327,-0.0613 l -0.0327,-0.0554 -0.063,0.0398 c -0.0347,0.0219 -0.22318,0.1472 -0.41888,0.27849 -0.19576,0.13129 -0.39857,0.26572 -0.45069,0.29862 l -0.0948,0.0599 0.12575,-0.12315 c 0.0692,-0.0677 0.19443,-0.18732 0.27831,-0.26578 l 0.15256,-0.14267 -0.051,-0.0495 -0.0511,-0.0495 -0.21938,0.20703 c -0.12069,0.11388 -0.29253,0.27764 -0.38195,0.36386 l -0.16256,0.15684 0.0412,0.0813 c 0.3153,0.62319 -0.52529,1.19589 -1.00405,0.68404 -0.50613,-0.54107 0.25559,-1.34279 0.83775,-0.88173 l 0.0582,0.0461 0.0576,-0.089 c 0.0854,-0.13225 0.0856,-0.13454 0.0128,-0.16732 -0.0764,-0.0344 -0.0763,-0.0149 -8.9e-4,-0.16539 0.0346,-0.0688 0.0628,-0.13117 0.0628,-0.13864 0,-0.016 -0.10574,-0.0756 -0.11526,-0.065 -0.003,0.004 -0.0469,0.0814 -0.0964,0.1722 -0.0495,0.0908 -0.0868,0.15448 -0.0829,0.14153 0.004,-0.013 0.0768,-0.23372 0.16208,-0.49045 0.0853,-0.2568 0.15147,-0.47052 0.14714,-0.47492 -0.004,-0.004 -0.0372,-0.0126 -0.0729,-0.0183 l -0.0648,-0.0103 -0.16756,0.5142 c -0.0922,0.28282 -0.16968,0.51179 -0.17221,0.50883 -0.003,-0.003 0.0113,-0.154 0.0309,-0.33554 0.0195,-0.1816 0.0342,-0.33163 0.0327,-0.33338 -0.002,-0.002 -0.0311,-0.008 -0.0657,-0.0133 l -0.063,-0.0101 -0.0286,0.2098 c -0.0677,0.49679 -0.0687,0.49251 -0.0705,-0.29722 l -0.002,-0.72708 h -0.0786 -0.0786 v 0.55288 c 0,0.30404 -0.003,0.54963 -0.007,0.54565 -0.004,-0.004 -0.0361,-0.29692 -0.0716,-0.65115 -0.0798,-0.79762 -0.0616,-0.71466 -0.15636,-0.71466 h -0.0774 l 0.008,0.0511 m -10.51298,2.71414 c -0.0743,0.0162 -0.21576,0.0628 -0.3144,0.10345 -0.568,0.23427 -0.62024,0.24698 -0.57999,0.14112 0.026,-0.0682 0.008,-0.0637 -0.10189,0.0251 -0.16358,0.13274 -0.21022,0.22818 -0.13701,0.2803 0.10869,0.0773 0.28361,0.098 0.4334,0.0512 0.10929,-0.0341 0.099,-0.0456 -0.063,-0.0707 -0.15822,-0.0244 -0.14876,-0.0342 0.14256,-0.14648 0.13876,-0.0535 0.31295,-0.12201 0.38713,-0.15238 0.23817,-0.0973 0.55052,-0.16298 0.81178,-0.17075 0.14352,-0.004 0.14684,-0.0126 0.0203,-0.0514 -0.13436,-0.0411 -0.43225,-0.0459 -0.59885,-0.01 m 11.93407,0.13479 c 0,0.009 -0.1137,0.0871 -0.12671,0.0871 -0.005,0 -0.006,-0.0212 -0.003,-0.0472 0.006,-0.0415 0.12912,-0.0795 0.12912,-0.0399 m -13.22962,0.2777 c -0.0903,0.1 -0.12521,0.18998 -0.0957,0.24686 0.0545,0.10532 0.20113,0.1951 0.35116,0.21486 0.1014,0.0134 0.10182,0.01 0.006,-0.0521 -0.14424,-0.0935 -0.21185,-0.21775 -0.20371,-0.37477 0.003,-0.0549 0.004,-0.0998 0.003,-0.0997 -0.001,0 -0.0285,0.0292 -0.0607,0.0649 m -0.26578,0.0625 c -0.10881,0.0856 -0.16075,0.31278 -0.0715,0.31278 0.0548,0 0.12732,0.0337 0.19576,0.0911 0.0657,0.0551 0.16305,0.0968 0.22673,0.0972 l 0.0538,2.3e-4 -0.0736,-0.0487 c -0.14135,-0.0936 -0.21643,-0.20299 -0.25938,-0.37772 l -0.0271,-0.11026 -0.0447,0.0352 m 11.75078,0.20914 0.0593,0.0536 -0.0495,0.009 c -0.0272,0.005 -0.0884,0.0134 -0.13599,0.0191 l -0.0865,0.0103 0.0701,-0.0727 c 0.0836,-0.0866 0.0699,-0.0848 0.14262,-0.0191 m -10.04551,0.32428 c 0.16202,0.0826 0.24939,0.20576 0.19552,0.27554 -0.0263,0.034 -0.0194,0.0395 -0.14533,-0.11623 -0.10924,-0.13521 -0.24655,-0.16648 -0.49883,-0.1137 -0.10225,0.0214 -0.19142,0.006 -0.22878,-0.0387 -0.0282,-0.034 -0.0141,-0.0402 0.0483,-0.0215 0.0412,0.0124 0.077,0.0106 0.14858,-0.008 0.13696,-0.035 0.39135,-0.0232 0.48052,0.0223 m 1.42178,0.30994 c -0.0412,0.10128 -0.11972,0.16117 -0.21106,0.16117 -0.0865,0 -0.11798,-0.0224 -0.054,-0.0385 0.0456,-0.0114 0.20721,-0.11671 0.24017,-0.15642 0.0369,-0.0444 0.0497,-0.0271 0.025,0.0337 m 0.14123,0.25468 c 0.0217,0.0684 -0.0595,0.16022 -0.16051,0.18125 -0.0879,0.0183 -0.0827,-0.004 0.0248,-0.1093 0.1155,-0.11274 0.1217,-0.11605 0.13569,-0.0719 m -0.77432,0.20354 c -0.0809,0.10851 -0.51299,0.20534 -0.58728,0.13165 -0.0292,-0.029 -0.0173,-0.034 0.17696,-0.0739 0.19594,-0.0403 0.3385,-0.0889 0.39424,-0.13442 0.0496,-0.0404 0.0614,0.0159 0.0161,0.0767 m 0.90831,0.23715 c -0.0118,0.0286 -0.0353,0.0518 -0.0583,0.0576 -0.0695,0.0175 -0.0704,-0.0169 -0.002,-0.0696 0.0752,-0.0578 0.088,-0.0552 0.0601,0.012 m -0.4134,0.0306 c 0.0154,0.0167 0.0405,0.0514 0.0556,0.0771 l 0.0275,0.0468 -0.12466,-0.008 c -0.13906,-0.01 -0.24667,0.0163 -0.34471,0.083 -0.0669,0.0455 -0.0737,0.0414 -0.0501,-0.0301 0.0543,-0.16442 0.33825,-0.27396 0.43634,-0.16828 m -9.38121,1.62315 c 0,0.0101 0.0111,0.0307 0.0247,0.0457 0.0225,0.0249 0.0222,0.032 -0.004,0.0799 -0.0223,0.0409 -0.0286,0.0873 -0.0286,0.20974 v 0.1572 l -0.0455,0.005 c -0.0514,0.006 -0.0718,-0.0165 -0.0722,-0.0791 -1.8e-4,-0.0234 -0.008,-0.0589 -0.0169,-0.079 -0.0198,-0.0435 0.0353,-0.32446 0.0677,-0.34507 0.0296,-0.0187 0.0747,-0.0155 0.0747,0.005 m 0.24198,0.27138 c 0.064,0.12918 0.0589,0.30422 -0.008,0.28632 -0.0742,-0.0197 -0.0836,-0.0352 -0.0838,-0.13906 -4.3e-4,-0.20793 0.0345,-0.26379 0.0922,-0.14726 m -0.79166,0.2765 c 0.0164,0.009 0.0477,0.0464 0.0695,0.0836 l 0.0396,0.0675 0.20642,0.0193 c 0.11352,0.0106 0.22746,0.0279 0.25319,0.0385 l 0.0468,0.0191 -0.0641,0.0515 -0.064,0.0514 -0.0986,-0.0266 c -0.0542,-0.0147 -0.15159,-0.0273 -0.21642,-0.028 l -0.11792,-10e-4 -0.0405,-0.11791 c -0.0223,-0.0648 -0.046,-0.13026 -0.0528,-0.14539 -0.014,-0.0314 -0.004,-0.0344 0.0388,-0.0115 m 0.67446,0.51106 c 0.0606,0.19636 0.20312,1.05773 0.18088,1.0937 -0.0296,0.0478 -0.0805,-0.071 -0.12508,-0.29234 -0.0224,-0.11062 -0.11719,-0.70387 -0.11755,-0.73496 -6e-5,-0.006 -0.0172,-0.0118 -0.0382,-0.0118 -0.0822,0 -0.0853,-0.0143 -0.0184,-0.085 0.0836,-0.0884 0.0814,-0.0889 0.11828,0.0303 m 0.22914,0.14112 c 0.0325,0.11423 0.0551,0.32307 0.0534,0.49479 l -0.001,0.14979 -0.0299,-0.0944 c -0.0621,-0.19588 -0.10291,-0.47497 -0.0944,-0.64458 0.003,-0.0654 0.0407,-0.0166 0.0723,0.0944 m -1.46884,0.73291 c 0.0668,0.15298 0.16027,0.42345 0.14997,0.43376 -0.0458,0.0458 -0.36092,-0.6946 -0.35489,-0.8339 0.001,-0.0238 0.1287,0.22559 0.20492,0.40014 m 0.1631,-0.27017 c 0.0386,0.0581 0.1199,0.20739 0.18058,0.33163 0.12683,0.25969 0.1099,0.2442 0.29283,0.26685 0.44623,0.0553 0.91969,0.21125 0.94482,0.31133 0.0392,0.15606 -0.51383,0.0728 -0.97868,-0.14744 -0.17902,-0.0848 -0.19516,-0.1055 -0.36255,-0.46478 -0.0718,-0.15407 -0.14803,-0.30783 -0.16936,-0.3417 -0.0213,-0.0338 -0.035,-0.0653 -0.0303,-0.07 0.0197,-0.0197 0.0565,0.0146 0.12267,0.11406 m 6.32262,0.13074 c 0.1728,0.22161 0.20564,0.44094 0.0914,0.61072 l -0.0531,0.0789 0.0538,0.0472 c 0.12178,0.10688 0.22029,0.40953 0.17582,0.53998 -0.0818,0.23999 -0.73092,0.88029 -1.02989,1.01586 -0.20939,0.095 -0.28645,0.0423 -0.3335,-0.22775 l -0.0181,-0.1037 -0.16738,-1.2e-4 c -0.73177,-8.5e-4 -2.14554,-0.36652 -3.35523,-0.86831 l -0.0907,-0.0376 0.0722,-0.0519 0.0722,-0.0519 0.10501,0.0477 c 0.56734,0.258 1.60646,0.44568 2.97558,0.53733 0.21456,0.0144 0.2527,0.0132 0.30566,-0.009 0.15967,-0.0667 0.37255,-0.2536 0.56252,-0.49389 0.11948,-0.15106 0.12183,-0.15732 0.0599,-0.15732 -0.0645,0 -0.0882,-0.034 -0.0668,-0.0956 0.0724,-0.20781 0.50191,-0.86342 0.56566,-0.86342 0.006,0 0.0395,0.0371 0.0749,0.0825 m 5.828,3.05915 c 0.058,0.0609 0.12069,0.0969 0.16859,0.0969 0.0914,0 0.15811,0.0858 0.21094,0.27132 0.0192,0.0675 0.0436,0.10803 0.0957,0.15943 0.10803,0.10646 0.088,0.19262 -0.16064,0.69013 -0.24185,0.48401 -0.88776,1.62152 -0.8633,1.52036 0.0137,-0.0564 0.11912,-0.64567 0.11912,-0.66556 0,-0.009 -0.0484,0.0572 -0.10755,0.14756 -0.47786,0.73002 -1.18535,1.3096 -1.93761,1.58748 -0.0656,0.0242 -0.1434,0.0588 -0.17292,0.0768 -0.093,0.0567 -0.22293,0.0306 -0.35736,-0.072 -0.0748,-0.0571 -0.0467,-0.0768 0.15051,-0.10616 0.88481,-0.13165 1.75926,-0.83258 2.59508,-2.08022 0.20896,-0.31187 0.6244,-1.02599 0.59687,-1.02599 -0.003,0 -0.13533,0.13719 -0.29337,0.30482 -1.11365,1.18168 -2.40306,2.09517 -3.09012,2.18934 l -0.0718,0.01 0.0178,-0.0512 c 0.0215,-0.0616 0.008,-0.26824 -0.0258,-0.39333 -0.0128,-0.0475 -0.0234,-0.0942 -0.0235,-0.10381 -7e-5,-0.01 0.0723,-0.029 0.16882,-0.0447 1.1821,-0.19142 2.3066,-0.89578 2.94823,-1.84669 l 0.0801,-0.11869 -0.14551,0.12544 c -1.02056,0.87975 -2.21458,1.43824 -3.07475,1.43824 -0.0128,0 -0.0228,-0.0366 -0.0288,-0.10611 -0.005,-0.0584 -0.0196,-0.13545 -0.0324,-0.1713 l -0.0233,-0.0652 0.12846,-0.0181 c 1.31218,-0.18468 2.34877,-0.6244 2.78831,-1.18282 0.11647,-0.14804 0.11484,-0.14948 -0.0446,-0.0397 -0.74672,0.51437 -1.84241,0.83956 -2.84472,0.84426 -0.0177,6e-5 -0.0897,0.14997 -0.1293,0.26957 -0.11303,0.34067 -0.19998,0.92476 -0.24824,1.66815 -0.0282,0.43425 -0.0496,0.37248 -0.0697,-0.20136 -0.013,-0.37357 -0.0103,-0.36754 -0.097,-0.21402 -0.13183,0.23348 -0.3952,0.52023 -0.50251,0.54716 -0.12123,0.0304 -0.11074,-0.13985 0.0295,-0.47847 0.0261,-0.0631 0.0437,-0.11864 0.0391,-0.12328 -0.007,-0.007 -0.81974,0.39942 -0.90644,0.45358 -0.0248,0.0155 -0.0573,0.005 -0.1998,-0.062 -0.56481,-0.26717 -1.20083,-0.26433 -1.78167,0.008 -0.213,0.0998 -0.6285,0.22348 -0.75178,0.22372 -0.0826,2.2e-4 -0.10797,-0.022 -0.1205,-0.10556 -0.0187,-0.12503 -0.0879,-0.22041 -0.26162,-0.3608 -0.12725,-0.10279 -0.17293,-0.10628 -0.39339,-0.0302 -0.16533,0.0571 -0.17311,0.0523 -0.0758,-0.0466 0.78847,-0.80106 2.27683,-1.49155 3.63903,-1.68822 0.3191,-0.0461 0.77231,-0.0905 1.23723,-0.12123 l 0.40664,-0.0269 0.0238,0.034 c 0.0131,0.0187 0.056,0.0529 0.0953,0.0759 l 0.0715,0.0419 0.29331,-0.01 c 0.90722,-0.0295 1.73226,-0.24565 2.20079,-0.57668 0.12996,-0.0918 0.13743,-0.1108 0.0245,-0.0622 -0.68086,0.29259 -1.42757,0.37326 -1.88193,0.20329 -0.20884,-0.0781 -0.37544,-0.22408 -0.39622,-0.34711 -0.0215,-0.12738 0.0889,-0.41436 0.15388,-0.39984 0.0421,0.009 0.28982,0.0491 0.38875,0.0623 0.69038,0.0921 1.63243,-0.0166 2.20887,-0.25493 l 0.11008,-0.0455 0.0365,0.0721 c 0.0201,0.0396 0.059,0.0957 0.0865,0.12455 m 1.16619,1.28416 c 1.34273,0.15895 2.68685,0.66959 3.49014,1.32592 0.25409,0.20763 0.59066,0.54246 0.61759,0.61452 0.003,0.007 -0.0522,0.0163 -0.12147,0.0216 -0.30626,0.0236 -0.4778,0.10683 -0.57041,0.27668 -0.0546,0.10009 -0.1625,0.1175 -0.30638,0.0495 -0.24867,-0.11767 -0.49546,-0.18515 -0.75124,-0.20558 -0.10381,-0.008 -0.51413,-0.0504 -0.91186,-0.0937 -0.39779,-0.0433 -0.73026,-0.0784 -0.73894,-0.078 -0.009,4.2e-4 0.0621,0.0285 0.15726,0.0624 0.52956,0.18884 0.9338,0.4672 1.21301,0.83522 0.41008,0.54059 0.20871,0.75551 -0.8301,0.88578 -0.94928,0.11912 -1.73534,0.0316 -3.51526,-0.39146 -0.42039,-0.0999 -0.7657,-0.12406 -1.29327,-0.0904 -0.76521,0.0488 -1.17674,0.0299 -1.39051,-0.0636 -0.18082,-0.0792 -0.28367,-0.0563 -0.55138,0.12237 -0.072,0.048 -0.15117,0.11707 -0.18461,0.16082 -0.19552,0.25643 -0.33079,0.29494 -0.36657,0.10429 -0.0347,-0.18449 0.13074,-0.36609 0.37187,-0.40833 0.0327,-0.006 0.11497,-0.052 0.19655,-0.1105 0.39092,-0.28054 0.67417,-0.31313 1.05093,-0.12081 0.25384,0.12955 0.29529,0.1475 0.41273,0.17853 0.26987,0.0713 0.55703,0.038 0.76756,-0.089 0.52697,-0.31802 2.18235,-0.94151 2.12294,-0.79962 -0.007,0.0165 -0.016,0.0673 -0.0203,0.11286 l -0.008,0.0828 0.0931,-0.0907 c 0.1904,-0.1854 0.68393,-0.35381 1.1921,-0.40671 0.14003,-0.0145 0.12725,-0.0179 -0.34585,-0.0921 -0.63669,-0.0998 -0.73719,-0.16744 -0.73659,-0.49582 4.7e-4,-0.2301 0.46979,-1.23765 0.61415,-1.31838 0.0273,-0.0153 0.0335,-0.0149 0.34254,0.0217 m -0.78527,2.41161 c -0.0159,0.0257 0.13702,0.14136 0.28216,0.2133 0.30844,0.15286 0.82197,0.27559 1.32339,0.31633 0.1622,0.0131 0.14798,0.0222 -0.11056,0.0709 -0.59825,0.1125 -1.28983,0.0285 -1.77577,-0.21588 l -0.13852,-0.0696 -0.0926,0.0571 c -0.12322,0.0761 -0.3156,0.13895 -0.52673,0.17221 -0.0951,0.0149 -0.1834,0.0303 -0.19636,0.0342 -0.1064,0.0316 1.05575,0.39056 1.54855,0.47823 0.79209,0.14093 2.24393,-0.14328 2.36504,-0.46292 0.0776,-0.2048 -0.0164,-0.26915 -0.41556,-0.28463 -0.89469,-0.0347 -1.99979,-0.18824 -2.2276,-0.30952 -0.0158,-0.008 -0.0301,-0.008 -0.0355,2.2e-4 m -5.71166,1.0293 c 0.21613,0.042 0.19396,0.0271 0.2048,0.13768 l 0.009,0.0887 -0.11454,0.017 c -0.33995,0.0506 -1.34279,0.0635 -1.59645,0.0207 l -0.0708,-0.012 0.0708,-0.0119 c 0.13201,-0.0223 0.71459,-0.16792 0.85679,-0.21419 0.2295,-0.0748 0.36254,-0.0802 0.64067,-0.026 m 1.08057,0.16196 c 4.2e-4,0.15581 -0.0583,0.2151 -0.20426,0.20618 l -0.0772,-0.005 0.12749,-0.16227 c 0.13918,-0.17702 0.15365,-0.18069 0.15401,-0.0392"
         id="path0-8"
         inkscape:connector-curvature="0"
         style="fill:#333333;fill-opacity:1;fill-rule:evenodd;stroke:none;stroke-width:0.06025269" />
      <g
         style="fill:#333333;fill-opacity:1"
         transform="translate(-48.815625,14.618229)"
         id="g938">
        <path
           inkscape:connector-curvature="0"
           id="path909"
           style="font-style:normal;font-variant:normal;font-weight:normal;font-stretch:normal;font-size:12.91357136px;line-height:1.25;font-family:'Times New Roman';-inkscape-font-specification:'Times New Roman, ';text-align:start;letter-spacing:0px;word-spacing:0px;text-anchor:start;fill:#333333;fill-opacity:1;stroke:none;stroke-width:1.21064723"
           d="m -138.854,325.5455 v -0.2333 h 0.32158 q 0.54227,0 0.76926,-0.3468 0.13872,-0.20808 0.13872,-0.93321 v -5.52358 q 0,-0.80079 -0.17655,-1.00256 -0.24591,-0.27744 -0.73143,-0.27744 h -0.32158 v -0.2333 h 3.48061 q 1.91686,0 2.91312,0.43507 1.00257,0.43508 1.60789,1.45026 0.61163,1.01517 0.61163,2.34563 0,1.78444 -1.08454,2.98248 -1.21695,1.33675 -3.70761,1.33675 z m 2.44021,-0.61793 q 0.80079,0.17655 1.34306,0.17655 1.46287,0 2.4276,-1.02779 0.96474,-1.02779 0.96474,-2.78701 0,-1.77183 -0.96474,-2.79332 -0.96473,-1.02148 -2.47804,-1.02148 -0.56749,0 -1.29262,0.18286 z" />
        <path
           inkscape:connector-curvature="0"
           id="path911"
           style="font-style:normal;font-variant:normal;font-weight:normal;font-stretch:normal;font-size:12.91357136px;line-height:1.25;font-family:'Times New Roman';-inkscape-font-specification:'Times New Roman, ';text-align:start;letter-spacing:0px;word-spacing:0px;text-anchor:start;fill:#333333;fill-opacity:1;stroke:none;stroke-width:1.21064723"
           d="m -128.36803,321.94509 q -0.006,1.28631 0.62424,2.01774 0.63055,0.73144 1.48178,0.73144 0.56749,0 0.98365,-0.30897 0.42247,-0.31527 0.70621,-1.07193 l 0.19547,0.12611 q -0.13241,0.86385 -0.76926,1.57636 -0.63685,0.70621 -1.59528,0.70621 -1.0404,0 -1.78445,-0.80709 -0.73773,-0.81341 -0.73773,-2.18169 0,-1.48178 0.75665,-2.3078 0.76296,-0.83232 1.91055,-0.83232 0.97104,0 1.59528,0.64316 0.62424,0.63685 0.62424,1.70878 z m 0,-0.36572 h 2.67351 q -0.0315,-0.55488 -0.13241,-0.78188 -0.15764,-0.3531 -0.47291,-0.55488 -0.30897,-0.20177 -0.64946,-0.20177 -0.52335,0 -0.93951,0.40985 -0.40986,0.40355 -0.47922,1.12868 z" />
        <path
           inkscape:connector-curvature="0"
           id="path913"
           style="font-style:normal;font-variant:normal;font-weight:normal;font-stretch:normal;font-size:12.91357136px;line-height:1.25;font-family:'Times New Roman';-inkscape-font-specification:'Times New Roman, ';text-align:start;letter-spacing:0px;word-spacing:0px;text-anchor:start;fill:#333333;fill-opacity:1;stroke:none;stroke-width:1.21064723"
           d="m -121.93647,317.87176 v 1.89795 h 1.34937 v 0.44138 h -1.34937 v 3.74544 q 0,0.56118 0.15764,0.75665 0.16394,0.19547 0.41616,0.19547 0.20808,0 0.40355,-0.12611 0.19547,-0.13241 0.30266,-0.38463 h 0.24591 q -0.22069,0.61793 -0.62424,0.93321 -0.40354,0.30896 -0.83232,0.30896 -0.29005,0 -0.56749,-0.15763 -0.27744,-0.16394 -0.40985,-0.4603 -0.13242,-0.30266 -0.13242,-0.9269 v -3.88416 h -0.91429 v -0.20808 q 0.3468,-0.13872 0.70621,-0.46661 0.36572,-0.33419 0.64947,-0.78818 0.14502,-0.23961 0.40355,-0.87646 z" />
        <path
           inkscape:connector-curvature="0"
           id="path915"
           style="font-style:normal;font-variant:normal;font-weight:normal;font-stretch:normal;font-size:12.91357136px;line-height:1.25;font-family:'Times New Roman';-inkscape-font-specification:'Times New Roman, ';text-align:start;letter-spacing:0px;word-spacing:0px;text-anchor:start;fill:#333333;fill-opacity:1;stroke:none;stroke-width:1.21064723"
           d="m -118.34236,319.59946 v 1.29892 q 0.72513,-1.29892 1.48809,-1.29892 0.3468,0 0.5738,0.21438 0.22699,0.20808 0.22699,0.48552 0,0.24592 -0.16394,0.41616 -0.16394,0.17025 -0.39094,0.17025 -0.22069,0 -0.49813,-0.21438 -0.27113,-0.2207 -0.40355,-0.2207 -0.1135,0 -0.24591,0.12611 -0.28375,0.25853 -0.58641,0.85124 v 2.76809 q 0,0.47922 0.11981,0.72513 0.082,0.17025 0.29005,0.28375 0.20808,0.1135 0.59902,0.1135 v 0.22699 h -2.95726 v -0.22699 q 0.44138,0 0.65576,-0.13872 0.15764,-0.10089 0.2207,-0.32158 0.0315,-0.1072 0.0315,-0.61163 v -2.23844 q 0,-1.00887 -0.0441,-1.19803 -0.0378,-0.19547 -0.15133,-0.28375 -0.10719,-0.0883 -0.27113,-0.0883 -0.19547,0 -0.44138,0.0946 l -0.0631,-0.227 1.74661,-0.70621 z" />
        <path
           inkscape:connector-curvature="0"
           id="path917"
           style="font-style:normal;font-variant:normal;font-weight:normal;font-stretch:normal;font-size:12.91357136px;line-height:1.25;font-family:'Times New Roman';-inkscape-font-specification:'Times New Roman, ';text-align:start;letter-spacing:0px;word-spacing:0px;text-anchor:start;fill:#333333;fill-opacity:1;stroke:none;stroke-width:1.21064723"
           d="m -112.89444,319.59946 q 1.31153,0 2.10602,0.99626 0.67468,0.85124 0.67468,1.95469 0,0.77557 -0.37202,1.57006 -0.37202,0.79449 -1.02779,1.19804 -0.64946,0.40354 -1.45025,0.40354 -1.30523,0 -2.0745,-1.0404 -0.64946,-0.87645 -0.64946,-1.9673 0,-0.79448 0.39094,-1.57636 0.39724,-0.78818 1.0404,-1.1602 0.64315,-0.37833 1.36198,-0.37833 z m -0.19547,0.40985 q -0.33419,0 -0.67469,0.20178 -0.33419,0.19547 -0.54227,0.6936 -0.20808,0.49813 -0.20808,1.28 0,1.2611 0.49813,2.17539 0.50444,0.91429 1.32415,0.91429 0.61163,0 1.00887,-0.50444 0.39725,-0.50444 0.39725,-1.734 0,-1.53853 -0.66208,-2.42129 -0.44768,-0.60533 -1.14128,-0.60533 z" />
        <path
           inkscape:connector-curvature="0"
           id="path919"
           style="font-style:normal;font-variant:normal;font-weight:normal;font-stretch:normal;font-size:12.91357136px;line-height:1.25;font-family:'Times New Roman';-inkscape-font-specification:'Times New Roman, ';text-align:start;letter-spacing:0px;word-spacing:0px;text-anchor:start;fill:#333333;fill-opacity:1;stroke:none;stroke-width:1.21064723"
           d="m -107.79333,316.57915 q 0.26483,0 0.44769,0.18916 0.18916,0.18286 0.18916,0.44769 0,0.26483 -0.18916,0.45399 -0.18286,0.18916 -0.44769,0.18916 -0.26483,0 -0.45399,-0.18916 -0.18917,-0.18916 -0.18917,-0.45399 0,-0.26483 0.18286,-0.44769 0.18917,-0.18916 0.4603,-0.18916 z m 0.52335,3.02031 v 4.64081 q 0,0.54227 0.0757,0.72513 0.082,0.17655 0.2333,0.26483 0.15764,0.0883 0.56749,0.0883 v 0.22699 h -2.80593 v -0.22699 q 0.42247,0 0.56749,-0.082 0.14503,-0.082 0.227,-0.27113 0.0883,-0.18916 0.0883,-0.72513 v -2.22582 q 0,-0.93952 -0.0567,-1.21696 -0.0441,-0.20177 -0.13872,-0.27744 -0.0946,-0.082 -0.25853,-0.082 -0.17655,0 -0.42877,0.0946 l -0.0883,-0.227 1.7403,-0.70621 z" />
        <path
           inkscape:connector-curvature="0"
           id="path921"
           style="font-style:normal;font-variant:normal;font-weight:normal;font-stretch:normal;font-size:12.91357136px;line-height:1.25;font-family:'Times New Roman';-inkscape-font-specification:'Times New Roman, ';text-align:start;letter-spacing:0px;word-spacing:0px;text-anchor:start;fill:#333333;fill-opacity:1;stroke:none;stroke-width:1.21064723"
           d="m -104.00375,317.87176 v 1.89795 h 1.34936 v 0.44138 h -1.34936 v 3.74544 q 0,0.56118 0.15763,0.75665 0.16395,0.19547 0.41616,0.19547 0.20808,0 0.40355,-0.12611 0.19547,-0.13241 0.30266,-0.38463 h 0.24592 q -0.22069,0.61793 -0.62424,0.93321 -0.40355,0.30896 -0.83232,0.30896 -0.29005,0 -0.56749,-0.15763 -0.27744,-0.16394 -0.40986,-0.4603 -0.13241,-0.30266 -0.13241,-0.9269 v -3.88416 h -0.91429 v -0.20808 q 0.3468,-0.13872 0.70621,-0.46661 0.36571,-0.33419 0.64946,-0.78818 0.14502,-0.23961 0.40355,-0.87646 z" />
      </g>
    </g>
  </g>
</svg>
